<svg width="25" height="25" viewBox="0 0 25 25" fill="none" xmlns="http://www.w3.org/2000/svg">
<path d="M1.91065 24.5488C1.78965 24.5522 1.66961 24.5248 1.56015 24.4688C1.39171 24.3938 1.24752 24.2664 1.14575 24.1027C1.04398 23.939 0.98919 23.7463 0.988281 23.5489V5.33003C1.00146 4.68786 1.13121 4.05479 1.37014 3.467C1.60906 2.87921 1.95247 2.34821 2.38075 1.90435C2.80903 1.46048 3.31378 1.11244 3.86617 0.880114C4.41856 0.647789 5.00776 0.535729 5.6001 0.550337H20.3579C20.9503 0.535729 21.5395 0.647789 22.0919 0.880114C22.6443 1.11244 23.149 1.46048 23.5773 1.90435C24.0056 2.34821 24.349 2.87921 24.5879 3.467C24.8268 4.05479 24.9566 4.68786 24.9698 5.33003V14.7694C24.9566 15.4116 24.8268 16.0447 24.5879 16.6325C24.349 17.2202 24.0056 17.7512 23.5773 18.1951C23.149 18.639 22.6443 18.987 22.0919 19.2193C21.5395 19.4517 20.9503 19.5637 20.3579 19.5491H6.90064L2.56552 24.2588C2.47934 24.3515 2.37713 24.4248 2.26475 24.4746C2.15237 24.5243 2.03203 24.5496 1.91065 24.5488ZM5.6001 2.55021C4.89365 2.52315 4.20604 2.80035 3.68754 3.32123C3.16904 3.84211 2.86182 4.56432 2.83301 5.33003V21.139L5.86759 17.8392C5.95377 17.7465 6.05599 17.6732 6.16837 17.6235C6.28075 17.5737 6.40108 17.5485 6.52247 17.5492H20.3579C21.0644 17.5763 21.752 17.2991 22.2705 16.7782C22.789 16.2573 23.0962 15.5351 23.125 14.7694V5.33003C23.0962 4.56432 22.789 3.84211 22.2705 3.32123C21.752 2.80035 21.0644 2.52315 20.3579 2.55021H5.6001Z" fill="#FB7D09"/>
<path d="M12.9783 11.5496C13.7424 11.5496 14.3618 10.8781 14.3618 10.0497C14.3618 9.22133 13.7424 8.5498 12.9783 8.5498C12.2142 8.5498 11.5947 9.22133 11.5947 10.0497C11.5947 10.8781 12.2142 11.5496 12.9783 11.5496Z" fill="#FB7D09"/>
<path d="M18.0515 11.5496C18.8156 11.5496 19.4351 10.8781 19.4351 10.0497C19.4351 9.22133 18.8156 8.5498 18.0515 8.5498C17.2874 8.5498 16.668 9.22133 16.668 10.0497C16.668 10.8781 17.2874 11.5496 18.0515 11.5496Z" fill="#FB7D09"/>
<path d="M7.90405 11.5496C8.66817 11.5496 9.2876 10.8781 9.2876 10.0497C9.2876 9.22133 8.66817 8.5498 7.90405 8.5498C7.13994 8.5498 6.52051 9.22133 6.52051 10.0497C6.52051 10.8781 7.13994 11.5496 7.90405 11.5496Z" fill="#FB7D09"/>
</svg>
