<svg width="100" height="100" viewBox="0 0 100 100" fill="none" xmlns="http://www.w3.org/2000/svg">
<g clip-path="url(#clip0_862_2)">
<path d="M79.1412 0.236572H20.8588C9.35714 0.236572 0 9.59371 0 21.0954V78.9045C0 90.406 9.35714 99.7633 20.8588 99.7633H79.1412C90.6429 99.7633 100 90.4062 100 78.9045V21.0954C100 9.59371 90.6426 0.236572 79.1412 0.236572ZM92.359 78.9045C92.359 86.1927 86.4296 92.1224 79.1412 92.1224H20.8588C13.5704 92.1221 7.64098 86.1927 7.64098 78.9045V21.0954C7.64098 13.8069 13.5704 7.87755 20.8588 7.87755H79.1412C86.4296 7.87755 92.359 13.8069 92.359 21.0954V78.9045Z" fill="white"/>
<rect x="20" y="31" width="48" height="6" rx="3" fill="white"/>
<rect x="20" y="63" width="54" height="6" rx="3" fill="white"/>
<rect x="20" y="47" width="60" height="6" rx="3" fill="white"/>
</g>
<defs>
<clipPath id="clip0_862_2">
<rect width="100" height="100" fill="white"/>
</clipPath>
</defs>
</svg>
