<svg width="32" height="32" viewBox="0 0 32 32" fill="none" xmlns="http://www.w3.org/2000/svg">
<rect x="0.5" y="0.5" width="31" height="31" rx="7.5" stroke="#FF0000"/>
<path d="M19 7C19.2652 7 19.5196 7.10536 19.7071 7.29289C19.8946 7.48043 20 7.73478 20 8H22C22.2652 8 22.5196 8.10536 22.7071 8.29289C22.8946 8.48043 23 8.73478 23 9C23 9.26522 22.8946 9.51957 22.7071 9.70711C22.5196 9.89464 22.2652 10 22 10H10C9.73478 10 9.48043 9.89464 9.29289 9.70711C9.10536 9.51957 9 9.26522 9 9C9 8.73478 9.10536 8.48043 9.29289 8.29289C9.48043 8.10536 9.73478 8 10 8H12C12 7.73478 12.1054 7.48043 12.2929 7.29289C12.4804 7.10536 12.7348 7 13 7H19Z" fill="#FF0000"/>
<path fill-rule="evenodd" clip-rule="evenodd" d="M10 11H22V23C22 23.5304 21.7893 24.0391 21.4142 24.4142C21.0391 24.7893 20.5304 25 20 25H12C11.4696 25 10.9609 24.7893 10.5858 24.4142C10.2107 24.0391 10 23.5304 10 23V11ZM13.5 13C13.3674 13 13.2402 13.0527 13.1464 13.1464C13.0527 13.2402 13 13.3674 13 13.5V22.5C13 22.6326 13.0527 22.7598 13.1464 22.8536C13.2402 22.9473 13.3674 23 13.5 23C13.6326 23 13.7598 22.9473 13.8536 22.8536C13.9473 22.7598 14 22.6326 14 22.5V13.5C14 13.3674 13.9473 13.2402 13.8536 13.1464C13.7598 13.0527 13.6326 13 13.5 13ZM18.5 13C18.3674 13 18.2402 13.0527 18.1464 13.1464C18.0527 13.2402 18 13.3674 18 13.5V22.5C18 22.6326 18.0527 22.7598 18.1464 22.8536C18.2402 22.9473 18.3674 23 18.5 23C18.6326 23 18.7598 22.9473 18.8536 22.8536C18.9473 22.7598 19 22.6326 19 22.5V13.5C19 13.3674 18.9473 13.2402 18.8536 13.1464C18.7598 13.0527 18.6326 13 18.5 13Z" fill="#FF0000"/>
</svg>
