<svg width="32" height="32" viewBox="0 0 32 32" fill="none" xmlns="http://www.w3.org/2000/svg">
<path d="M24.554 8.02826C24.1286 7.62736 23.5613 7.41182 22.9769 7.42906C22.3925 7.4463 21.8389 7.69489 21.4378 8.12016C21.0368 8.54543 20.8212 9.11254 20.8384 9.69673C20.8557 10.2809 21.1044 10.8343 21.5298 11.2352L24.2468 13.7971H11.364C10.7883 13.8102 10.2405 14.0481 9.83793 14.4598C9.43536 14.8715 9.20996 15.4243 9.20996 16C9.20996 16.5757 9.43536 17.1285 9.83793 17.5402C10.2405 17.9519 10.7883 18.1898 11.364 18.2029H24.2468L21.5298 20.7693C21.1047 21.1705 20.8564 21.7241 20.8396 22.3083C20.8228 22.8925 21.0388 23.4594 21.4401 23.8844C21.8415 24.3094 22.3953 24.5576 22.9797 24.5744C23.5641 24.5912 24.1312 24.3752 24.5563 23.974L31.3118 17.5989C31.5293 17.3927 31.7025 17.1444 31.8208 16.8691C31.9392 16.5938 32.0002 16.2974 32.0002 15.9977C32.0002 15.6981 31.9392 15.4016 31.8208 15.1263C31.7025 14.851 31.5293 14.6027 31.3118 14.3965L24.554 8.02826Z" fill="white"/>
<path d="M14.3595 27.5954H4.40847V4.40458H14.3595C14.9438 4.40458 15.5042 4.17255 15.9173 3.75955C16.3305 3.34654 16.5626 2.78637 16.5626 2.20229C16.5626 1.61821 16.3305 1.05805 15.9173 0.645036C15.5042 0.232026 14.9438 0 14.3595 0H2.20424C1.61982 0.000604451 1.05952 0.232945 0.646274 0.646038C0.23303 1.05913 0.000604671 1.61923 0 2.20343V29.7977C0.000906857 30.3817 0.233466 30.9415 0.646677 31.3544C1.05989 31.7672 1.62002 31.9994 2.20424 32H14.3595C14.9438 32 15.5042 31.768 15.9173 31.355C16.3305 30.942 16.5626 30.3818 16.5626 29.7977C16.5626 29.2136 16.3305 28.6535 15.9173 28.2405C15.5042 27.8274 14.9438 27.5954 14.3595 27.5954Z" fill="white"/>
</svg>
