<svg
    width="512"
    height="512"
    viewBox="0 0 512 512"
    fill="none"
    xmlns="http://www.w3.org/2000/svg"
  >
    <path
      d="M187.288 0C84.3377 0 0.575195 80.5483 0.575195 179.555C0.575195 262.986 60.0484 333.302 140.365 353.371L185.397 304.473C116.363 303.473 60.5157 247.84 60.5157 179.56C60.5157 110.66 117.388 54.6015 187.288 54.6015H461.705L511.99 0H187.288Z"
      fill="url(#paint0_linear_851_2)"
    />
    <path
      d="M306.608 229.87L256.155 227.665H212.283C177.578 227.665 149.347 206.083 149.347 179.556C149.347 153.03 177.578 131.453 212.283 131.453H312.711C362.303 131.453 409.356 111.461 441.229 76.8516H212.283C144.528 76.8516 89.4067 122.924 89.4067 179.556C89.4067 234.425 141.149 279.384 205.994 282.133L300.319 284.338C335.024 284.338 363.255 305.92 363.255 332.442C363.255 358.968 335.024 380.545 300.319 380.545H199.305C149.713 380.545 102.66 400.537 70.7871 435.147H300.325C368.08 435.147 423.201 389.074 423.201 332.442C423.195 277.573 371.453 232.614 306.608 229.87Z"
      fill="url(#paint1_linear_851_2)"
    />
    <path
      d="M325.287 512C428.238 512 512 431.451 512 332.439C512 249.009 452.527 178.693 372.21 158.623L327.179 207.522C396.212 208.527 452.059 264.154 452.059 332.434C452.059 401.335 395.188 457.393 325.287 457.393H50.2845L0 511.995H325.287V512Z"
      fill="url(#paint2_linear_851_2)"
    />
    <defs>
      <linearGradient
        id="paint0_linear_851_2"
        x1="438.778"
        y1="-107.598"
        x2="-60.6305"
        y2="440.644"
        gradientUnits="userSpaceOnUse"
      >
        <stop offset="0.0256" stop-color="#DC3636" />
        <stop offset="0.7785" stop-color="#E6A52D" />
      </linearGradient>
      <linearGradient
        id="paint1_linear_851_2"
        x1="482.53"
        y1="49.9237"
        x2="74.8927"
        y2="497.42"
        gradientUnits="userSpaceOnUse"
      >
        <stop offset="0.2215" stop-color="#E6A52D" />
        <stop offset="0.9744" stop-color="#DC3636" />
      </linearGradient>
      <linearGradient
        id="paint2_linear_851_2"
        x1="655.445"
        y1="89.7587"
        x2="156.036"
        y2="638"
        gradientUnits="userSpaceOnUse"
      >
        <stop offset="0.0256" stop-color="#DC3636" />
        <stop offset="0.7785" stop-color="#E6A52D" />
      </linearGradient>
    </defs>
  </svg>