  <svg
    width="176"
    height="37"
    viewBox="0 0 176 37"
    fill="none"
    xmlns="http://www.w3.org/2000/svg"
  >
    <path
      d="M10.1626 7.84407H14.2586L16.8506 15.3641L19.4746 7.84407H23.5386L19.6346 18.1801L22.5146 25.4121L28.9466 7.78007H33.7466L24.6586 30.5001H20.8506L16.8506 20.9641L12.8826 30.5001H9.07456L0.0185547 7.78007H4.75455L11.2186 25.4121L14.0346 18.1801L10.1626 7.84407Z"
      fill="black"
    />
    <path
      d="M42.7841 30.8201C41.4401 30.8201 40.2241 30.5961 39.1361 30.1481C38.0481 29.6787 37.1201 29.0494 36.3521 28.2601C35.5841 27.4494 34.9867 26.5321 34.5601 25.5081C34.1547 24.4627 33.9521 23.3641 33.9521 22.2121C33.9521 20.6121 34.3041 19.1507 35.0081 17.8281C35.7334 16.5054 36.7574 15.4494 38.0801 14.6601C39.4241 13.8494 41.0027 13.4441 42.8161 13.4441C44.6507 13.4441 46.2187 13.8494 47.5201 14.6601C48.8214 15.4494 49.8134 16.5054 50.4961 17.8281C51.2001 19.1294 51.5521 20.5374 51.5521 22.0521C51.5521 22.3081 51.5414 22.5747 51.5201 22.8521C51.4987 23.1081 51.4774 23.3214 51.4561 23.4921H38.4961C38.5814 24.3454 38.8267 25.0921 39.2321 25.7321C39.6587 26.3721 40.1921 26.8627 40.8321 27.2041C41.4934 27.5241 42.1974 27.6841 42.9441 27.6841C43.7974 27.6841 44.5974 27.4814 45.3441 27.0761C46.1121 26.6494 46.6347 26.0947 46.9121 25.4121L50.5921 26.4361C50.1867 27.2894 49.6001 28.0467 48.8321 28.7081C48.0854 29.3694 47.2001 29.8921 46.1761 30.2761C45.1521 30.6387 44.0214 30.8201 42.7841 30.8201ZM38.4001 20.7721H47.1681C47.0827 19.9187 46.8374 19.1827 46.4321 18.5641C46.0481 17.9241 45.5361 17.4334 44.8961 17.0921C44.2561 16.7294 43.5414 16.5481 42.7521 16.5481C41.9841 16.5481 41.2801 16.7294 40.6401 17.0921C40.0214 17.4334 39.5094 17.9241 39.1041 18.5641C38.7201 19.1827 38.4854 19.9187 38.4001 20.7721Z"
      fill="black"
    />
    <path
      d="M65.3003 30.8201C64.0203 30.8201 62.879 30.5321 61.8763 29.9561C60.8736 29.3801 60.0843 28.5907 59.5083 27.5881V30.5001H55.7643V7.14007H60.0523V16.6761C60.6496 15.6734 61.4283 14.8841 62.3883 14.3081C63.3696 13.7321 64.511 13.4441 65.8123 13.4441C66.9003 13.4441 67.8923 13.6787 68.7883 14.1481C69.6843 14.5961 70.4523 15.2254 71.0923 16.0361C71.7536 16.8467 72.255 17.7747 72.5963 18.8201C72.959 19.8654 73.1403 20.9854 73.1403 22.1801C73.1403 23.3747 72.9376 24.4947 72.5323 25.5401C72.1483 26.5854 71.6043 27.5134 70.9003 28.3241C70.1963 29.1134 69.3643 29.7321 68.4043 30.1801C67.4656 30.6067 66.431 30.8201 65.3003 30.8201ZM64.1163 27.1721C64.799 27.1721 65.4176 27.0441 65.9723 26.7881C66.5483 26.5107 67.039 26.1481 67.4443 25.7001C67.871 25.2521 68.191 24.7294 68.4043 24.1321C68.639 23.5134 68.7563 22.8734 68.7563 22.2121C68.7563 21.2947 68.5643 20.4521 68.1803 19.6841C67.8176 18.8947 67.3056 18.2654 66.6443 17.7961C66.0043 17.3267 65.247 17.0921 64.3723 17.0921C63.7536 17.0921 63.1563 17.2414 62.5803 17.5401C62.0256 17.8174 61.5243 18.2014 61.0763 18.6921C60.6496 19.1827 60.3083 19.7374 60.0523 20.3561V24.3561C60.1803 24.7827 60.383 25.1667 60.6603 25.5081C60.959 25.8494 61.3003 26.1481 61.6843 26.4041C62.0683 26.6387 62.463 26.8307 62.8683 26.9801C63.295 27.1081 63.711 27.1721 64.1163 27.1721Z"
      fill="black"
    />
    <path
      d="M134.689 13.7321H138.753L131.745 30.5001H128.161L125.345 23.3001L122.593 30.5001H118.977L112.001 13.7321H116.033L121.025 26.4041L122.977 20.9321L120.065 13.7641H123.617L125.345 18.8841L127.105 13.7641H130.657L127.745 20.9321L129.729 26.4041L134.689 13.7321Z"
      fill="black"
    />
    <path
      d="M142.333 30.5001V13.7321H146.621V30.5001H142.333ZM142.333 11.3961V7.14007H146.621V11.3961H142.333Z"
      fill="black"
    />
    <path
      d="M153.113 30.5001V17.8921H150.905V14.6281H153.113V13.6041C153.113 12.2174 153.337 11.0227 153.785 10.0201C154.255 8.99607 154.905 8.20673 155.737 7.65207C156.591 7.0974 157.583 6.82007 158.713 6.82007C159.396 6.82007 160.079 6.9054 160.761 7.07607C161.465 7.24673 162.159 7.49207 162.841 7.81207L161.977 11.0441C161.657 10.8734 161.284 10.7347 160.857 10.6281C160.431 10.5001 160.025 10.4361 159.641 10.4361C158.916 10.4361 158.361 10.6921 157.977 11.2041C157.593 11.7161 157.401 12.4627 157.401 13.4441V14.6281H161.497V17.8921H157.401V30.5001H153.113Z"
      fill="black"
    />
    <path
      d="M175.581 29.6361C175.218 29.7854 174.781 29.9561 174.269 30.1481C173.757 30.3401 173.202 30.4894 172.605 30.5961C172.029 30.7241 171.442 30.7881 170.845 30.7881C170.056 30.7881 169.33 30.6494 168.669 30.3721C168.008 30.0947 167.474 29.6574 167.069 29.0601C166.685 28.4414 166.493 27.6414 166.493 26.6601V17.0281H164.285V13.7321H166.493V8.29207H170.781V13.7321H174.301V17.0281H170.781V25.2201C170.802 25.7961 170.962 26.2121 171.261 26.4681C171.56 26.7241 171.933 26.8521 172.381 26.8521C172.829 26.8521 173.266 26.7774 173.693 26.6281C174.12 26.4787 174.461 26.3507 174.717 26.2441L175.581 29.6361Z"
      fill="black"
    />
    <path
      d="M88.3255 0.5C81.0868 0.5 75.1973 6.16355 75.1973 13.125C75.1973 18.9912 79.379 23.9353 85.0262 25.3464L88.1925 21.9083C83.3386 21.8379 79.4118 17.9263 79.4118 13.1253C79.4118 8.28076 83.4106 4.33917 88.3255 4.33917H107.62L111.156 0.5H88.3255Z"
      fill="url(#paint0_linear_215_1434)"
    />
    <path
      d="M96.714 16.6627L93.1665 16.5076H90.0817C87.6415 16.5076 85.6566 14.9901 85.6566 13.125C85.6566 11.2599 87.6415 9.74273 90.0817 9.74273H97.1431C100.63 9.74273 103.938 8.33703 106.18 5.90356H90.0817C85.3177 5.90356 81.442 9.14302 81.442 13.125C81.442 16.9829 85.0802 20.1441 89.6395 20.3374L96.2718 20.4925C98.712 20.4925 100.697 22.01 100.697 23.8747C100.697 25.7399 98.712 27.257 96.2718 27.257H89.1692C85.6823 27.257 82.3739 28.6627 80.1328 31.0962H96.2722C101.036 31.0962 104.912 27.8567 104.912 23.8747C104.912 20.0168 101.273 16.8556 96.714 16.6627Z"
      fill="url(#paint1_linear_215_1434)"
    />
    <path
      d="M98.028 36.5C105.267 36.5 111.156 30.8364 111.156 23.8746C111.156 18.0084 106.975 13.0643 101.327 11.6532L98.161 15.0914C103.015 15.162 106.942 19.0733 106.942 23.8743C106.942 28.7189 102.943 32.6604 98.028 32.6604H78.6919L75.1562 36.4996H98.028V36.5Z"
      fill="url(#paint2_linear_215_1434)"
    />
    <defs>
      <linearGradient
        id="paint0_linear_215_1434"
        x1="106.008"
        y1="-7.06547"
        x2="70.8937"
        y2="31.4828"
        gradientUnits="userSpaceOnUse"
      >
        <stop offset="0.0256" stop-color="#DC3636" />
        <stop offset="0.7785" stop-color="#E6A52D" />
      </linearGradient>
      <linearGradient
        id="paint1_linear_215_1434"
        x1="109.083"
        y1="4.0102"
        x2="80.4215"
        y2="35.4748"
        gradientUnits="userSpaceOnUse"
      >
        <stop offset="0.2215" stop-color="#E6A52D" />
        <stop offset="0.9744" stop-color="#DC3636" />
      </linearGradient>
      <linearGradient
        id="paint2_linear_215_1434"
        x1="121.242"
        y1="6.81114"
        x2="86.1275"
        y2="45.3594"
        gradientUnits="userSpaceOnUse"
      >
        <stop offset="0.0256" stop-color="#DC3636" />
        <stop offset="0.7785" stop-color="#E6A52D" />
      </linearGradient>
    </defs>
  </svg>